<svg xmlns="http://www.w3.org/2000/svg"  viewBox="0 0 100 100" width="100px" height="100px"><path d="M 16.894531 14 A 1.0001 1.0001 0 0 0 15.898438 15.087891 L 21.740234 81.298828 A 1.0001 1.0001 0 0 0 22.462891 82.171875 L 49.724609 89.960938 A 1.0001 1.0001 0 0 0 50.275391 89.960938 L 77.537109 82.171875 A 1.0001 1.0001 0 0 0 78.259766 81.298828 L 84.101562 15.087891 A 1.0001 1.0001 0 0 0 83.105469 14 L 16.894531 14 z M 17.986328 16 L 82.013672 16 L 76.328125 80.4375 L 50 87.960938 L 23.671875 80.4375 L 17.986328 16 z M 50 20 A 0.50005 0.50005 0 0 0 49.5 20.5 L 49.5 30.080078 L 32.083984 30.080078 A 0.50005 0.50005 0 0 0 31.585938 30.617188 L 32.169922 38.40625 A 0.50005 0.50005 0 0 0 32.667969 38.869141 L 50 38.869141 L 59.001953 38.869141 L 58.494141 45.658203 L 50.5 45.658203 L 50.5 41.367188 A 0.50005 0.50005 0 0 0 49.992188 40.861328 A 0.50005 0.50005 0 0 0 49.5 41.367188 L 49.5 45.658203 L 41.042969 45.658203 A 0.50005 0.50005 0 0 0 40.542969 46.183594 L 40.933594 53.972656 A 0.50005 0.50005 0 0 0 41.431641 54.447266 L 50 54.447266 L 58.033203 54.447266 L 57.507812 62.34375 L 50.5 64.738281 L 50.5 56.947266 A 0.50005 0.50005 0 0 0 49.992188 56.439453 A 0.50005 0.50005 0 0 0 49.5 56.947266 L 49.5 64.738281 L 42.501953 62.347656 L 42.320312 57.822266 A 0.50005 0.50005 0 0 0 41.820312 57.341797 L 34.03125 57.341797 A 0.50005 0.50005 0 0 0 33.533203 57.869141 L 34.117188 68.580078 A 0.50005 0.50005 0 0 0 34.458984 69.027344 L 49.84375 74.091797 A 0.50005 0.50005 0 0 0 50.15625 74.091797 L 65.541016 69.029297 A 0.50005 0.50005 0 0 0 65.882812 68.583984 L 67.246094 46.189453 L 68.220703 30.611328 A 0.50005 0.50005 0 0 0 67.720703 30.080078 L 50.5 30.080078 L 50.5 21 L 53.5 21 A 0.50005 0.50005 0 1 0 53.5 20 L 50 20 z M 56.5 20 A 0.50005 0.50005 0 1 0 56.5 21 L 60.5 21 A 0.50005 0.50005 0 1 0 60.5 20 L 56.5 20 z M 63.5 20 A 0.50005 0.50005 0 1 0 63.5 21 L 76.164062 21 L 71.341797 76.345703 L 50.5 82.300781 L 50.5 76.5 A 0.50005 0.50005 0 1 0 49.5 76.5 L 49.5 82.962891 A 0.50005 0.50005 0 0 0 50.136719 83.443359 L 71.949219 77.212891 A 0.50005 0.50005 0 0 0 72.308594 76.775391 L 77.207031 20.542969 A 0.50005 0.50005 0 0 0 76.708984 20 L 63.5 20 z M 32.623047 31.080078 L 49.933594 31.080078 A 0.50005 0.50005 0 0 0 50.070312 31.080078 L 67.189453 31.080078 L 66.248047 46.126953 A 0.50005 0.50005 0 0 0 66.248047 46.128906 L 64.90625 68.185547 L 50 73.089844 L 35.095703 68.185547 L 34.560547 58.341797 L 41.339844 58.341797 L 41.515625 62.730469 A 0.50005 0.50005 0 0 0 41.853516 63.183594 L 49.757812 65.880859 A 0.50005 0.50005 0 0 0 50.246094 65.878906 L 58.146484 63.183594 A 0.50005 0.50005 0 0 0 58.482422 62.744141 L 59.066406 53.980469 A 0.50005 0.50005 0 0 0 58.568359 53.447266 L 50 53.447266 L 41.908203 53.447266 L 41.568359 46.658203 L 49.919922 46.658203 A 0.50005 0.50005 0 0 0 50.082031 46.658203 L 58.957031 46.658203 A 0.50005 0.50005 0 0 0 59.457031 46.195312 L 60.041016 38.40625 A 0.50005 0.50005 0 0 0 59.542969 37.869141 L 50 37.869141 L 33.132812 37.869141 L 32.623047 31.080078 z"/></svg>